<svg xmlns="http://www.w3.org/2000/svg" width="117.84" height="14.779" viewBox="0 0 117.84 14.779"><path d="M40.72,4.72h5.32a4.01,4.01,0,0,1,2.8.91,3.563,3.563,0,0,1,1,2.77,4.306,4.306,0,0,1-.58,2.35,2.686,2.686,0,0,1-1.8,1.17v.04a2.608,2.608,0,0,1,1.58.7,2.967,2.967,0,0,1,.62,1.74q.04.4.06.87t.04,1.05q.04,1.14.12,1.74a1.119,1.119,0,0,0,.52.82V19H47.28a1.546,1.546,0,0,1-.28-.69,7.752,7.752,0,0,1-.08-.81l-.08-2.74a2.253,2.253,0,0,0-.42-1.32,1.539,1.539,0,0,0-1.28-.48H43.6V19H40.72Zm2.88,6.24h1.2a2.356,2.356,0,0,0,1.6-.49,2.1,2.1,0,0,0,.56-1.65,1.759,1.759,0,0,0-2-1.98H43.6ZM59.82,4.72V7.08h-5.1v3.36h4.8V12.8h-4.8v3.84h5.3V19H51.84V4.72Zm7.6,8.9h-2.8L66,7.2h.04Zm.38-8.9H64.24L60.46,19h3l.66-3.02h3.8L68.58,19h3ZM72.58,19V4.72h2.88V16.64h5.1V19Zm9.4,0V4.72h2.88V19ZM95.36,4.72V7.08H92.24V19H89.36V7.08H86.24V4.72Zm3.54,0,1.88,5.52h.04l2-5.52h3.12l-3.7,8.66V19H99.36V13.38l-3.7-8.66Zm8.1,0h2.88v5.46h3.36V4.72h2.88V19h-2.88V12.66h-3.36V19H107Zm13.7,7.14q0,1.44.07,2.45a6.8,6.8,0,0,0,.28,1.64,1.822,1.822,0,0,0,.6.92,1.974,1.974,0,0,0,2.06,0,1.822,1.822,0,0,0,.6-.92,6.8,6.8,0,0,0,.28-1.64q.07-1.01.07-2.45t-.07-2.44a6.921,6.921,0,0,0-.28-1.64,1.825,1.825,0,0,0-.6-.93,1.974,1.974,0,0,0-2.06,0,1.825,1.825,0,0,0-.6.93,6.926,6.926,0,0,0-.28,1.64Q120.7,10.42,120.7,11.86Zm-2.88,0a27.58,27.58,0,0,1,.15-2.99,6.626,6.626,0,0,1,.66-2.35,3.694,3.694,0,0,1,1.47-1.53,6.326,6.326,0,0,1,5.16,0,3.694,3.694,0,0,1,1.47,1.53,6.626,6.626,0,0,1,.66,2.35,27.58,27.58,0,0,1,.15,2.99,27.506,27.506,0,0,1-.15,3,6.61,6.61,0,0,1-.66,2.34,3.508,3.508,0,0,1-1.47,1.5,6.66,6.66,0,0,1-5.16,0,3.508,3.508,0,0,1-1.47-1.5,6.61,6.61,0,0,1-.66-2.34A27.506,27.506,0,0,1,117.82,11.86Zm14.12-7.14v9.96a6.454,6.454,0,0,0,.07.99,2.241,2.241,0,0,0,.26.78,1.39,1.39,0,0,0,.52.52,1.93,1.93,0,0,0,1.67,0,1.414,1.414,0,0,0,.51-.52,2.241,2.241,0,0,0,.26-.78,6.464,6.464,0,0,0,.07-.99V4.72h2.88v9.96a5.761,5.761,0,0,1-.38,2.25,3.589,3.589,0,0,1-1.02,1.41,3.458,3.458,0,0,1-1.46.7,7.907,7.907,0,0,1-1.7.18,8.859,8.859,0,0,1-1.7-.16,3.455,3.455,0,0,1-1.46-.65,3.335,3.335,0,0,1-1.02-1.39,6.086,6.086,0,0,1-.38-2.34V4.72Zm10.38,9.82v.42a4.766,4.766,0,0,0,.08.91,1.59,1.59,0,0,0,.3.69,1.479,1.479,0,0,0,.59.44,2.352,2.352,0,0,0,.93.16,1.84,1.84,0,0,0,1.19-.43,1.612,1.612,0,0,0,.53-1.33,2.382,2.382,0,0,0-.13-.83,1.638,1.638,0,0,0-.43-.63,3.051,3.051,0,0,0-.79-.51,11.328,11.328,0,0,0-1.21-.47,10.362,10.362,0,0,1-1.66-.7,4.476,4.476,0,0,1-1.17-.89,3.187,3.187,0,0,1-.69-1.18,4.97,4.97,0,0,1-.22-1.55,3.993,3.993,0,0,1,1.18-3.16,4.73,4.73,0,0,1,3.24-1.04,7.042,7.042,0,0,1,1.77.21,3.708,3.708,0,0,1,1.4.68,3.181,3.181,0,0,1,.92,1.2,4.226,4.226,0,0,1,.33,1.75v.4h-2.76a2.865,2.865,0,0,0-.36-1.57,1.326,1.326,0,0,0-1.2-.55,1.994,1.994,0,0,0-.8.14,1.345,1.345,0,0,0-.51.37,1.274,1.274,0,0,0-.26.53,2.719,2.719,0,0,0-.07.62,2.063,2.063,0,0,0,.28,1.11,2.51,2.51,0,0,0,1.2.83l2.22.96a6.8,6.8,0,0,1,1.34.75,3.657,3.657,0,0,1,.83.84,2.8,2.8,0,0,1,.43.99,5.542,5.542,0,0,1,.12,1.2,3.93,3.93,0,0,1-1.31,3.29,5.77,5.77,0,0,1-3.65,1.03,4.782,4.782,0,0,1-3.49-1.06,4.137,4.137,0,0,1-1.05-3.04v-.58Zm16.04-9.82V7.08h-5.1v3.36h4.8V12.8h-4.8v3.84h5.3V19h-8.18V4.72Z" transform="translate(-40.72 -4.44)" fill="#2c2a29"/></svg>